<svg xmlns="http://www.w3.org/2000/svg" xmlns:xlink="http://www.w3.org/1999/xlink" width="920" height="711.3"><rect width="920" height="711.3" rx="5" ry="5" class="a"/><svg y="0%" x="0%"><circle cx="20" cy="20" r="6" fill="#ff5f58"/><circle cx="40" cy="20" r="6" fill="#ffbd2e"/><circle cx="60" cy="20" r="6" fill="#18c132"/></svg><svg height="651.3" viewBox="0 0 88 65.13" width="880" x="15" xmlns="http://www.w3.org/2000/svg" xmlns:xlink="http://www.w3.org/1999/xlink" y="50"><style>@keyframes o{0%{transform:translateX(0)}1.67%{transform:translateX(-88px)}1.94%{transform:translateX(-528px)}1.95%{transform:translateX(-616px)}5.05%{transform:translateX(-704px)}6.24%{transform:translateX(-792px)}6.98%{transform:translateX(-880px)}7.87%{transform:translateX(-968px)}9.81%{transform:translateX(-1056px)}10.76%{transform:translateX(-1144px)}12.08%{transform:translateX(-1232px)}12.86%{transform:translateX(-1320px)}14.21%{transform:translateX(-1408px)}15.17%{transform:translateX(-1496px)}16.28%{transform:translateX(-1584px)}17.71%{transform:translateX(-1672px)}18.82%{transform:translateX(-1760px)}21.4%{transform:translateX(-1848px)}22.99%{transform:translateX(-1936px)}24%{transform:translateX(-2024px)}26.85%{transform:translateX(-2112px)}28.31%{transform:translateX(-2200px)}29.27%{transform:translateX(-2288px)}32.43%{transform:translateX(-2376px)}32.48%{transform:translateX(-2464px)}32.5%{transform:translateX(-2552px)}41.39%{transform:translateX(-2728px)}41.4%{transform:translateX(-2816px)}48.68%{transform:translateX(-2992px)}52.19%{transform:translateX(-3168px)}52.2%{transform:translateX(-3256px)}52.21%{transform:translateX(-3344px)}52.66%{transform:translateX(-3520px)}53.11%{transform:translateX(-3696px)}53.55%{transform:translateX(-3784px)}53.56%{transform:translateX(-3872px)}54%{transform:translateX(-4048px)}54.45%{transform:translateX(-4224px)}54.54%{transform:translateX(-4400px)}54.6%{transform:translateX(-4840px)}54.62%{transform:translateX(-4928px)}54.69%{transform:translateX(-5016px)}54.81%{transform:translateX(-5104px)}54.82%{transform:translateX(-5280px)}54.83%{transform:translateX(-5368px)}to{transform:translateX(-5456px)}}.a{fill:#282d35}.g{fill:#d290e4}.h{fill:#a8cc8c}.i{fill:#b9c0cb}.j{fill:#66c2cd}.k{fill:#b9c0cb;font-weight:700}.l{fill:#6f7783}.m{fill:#dbab79}.r{fill:#e88388;font-weight:700}.s{fill:#66c2cd;text-decoration:underline}</style><g font-size="1.67" font-family="Monaco,Consolas,Menlo,'Bitstream Vera Sans Mono','Powerline Symbols',monospace"><defs><symbol id="1"><text y="1.67" fill="#71bef2">~</text></symbol><symbol id="2"><text y="1.67" class="g">❯</text></symbol><symbol id="3"><text y="1.67" class="g">❯</text><text x="2.004" y="1.67" class="h">airly</text></symbol><symbol id="4"><text y="1.67" class="g">❯</text><text x="2.004" y="1.67" class="h">airly</text><text x="8.016" y="1.67" class="i">--city</text></symbol><symbol id="5"><text y="1.67" class="g">❯</text><text x="2.004" y="1.67" class="h">airly</text><text x="8.016" y="1.67" class="i">--city</text><text x="15.03" y="1.67" class="i">Krakow</text></symbol><symbol id="6"><text y="1.67" class="j">?</text><text x="2.004" y="1.67" class="k">Available</text><text x="12.024" y="1.67" class="k">sensors:</text><text x="21.042" y="1.67" class="l">›</text><text x="23.046" y="1.67" class="l">-</text><text x="25.05" y="1.67" class="l">Use</text><text x="29.058" y="1.67" class="l">arrow-keys.</text><text x="41.082" y="1.67" class="l">Return</text><text x="48.096" y="1.67" class="l">to</text><text x="51.102" y="1.67" class="l">submit.</text></symbol><symbol id="7"><text x="3.006" y="1.67" class="i">plac</text><text x="8.016" y="1.67" class="i">Sikorskiego</text></symbol><symbol id="8"><text y="1.67" class="h">✔</text><text x="2.004" y="1.67" class="k">Available</text><text x="12.024" y="1.67" class="k">sensors:</text><text x="21.042" y="1.67" class="l">›</text><text x="23.046" y="1.67" class="i">Felicjanek</text></symbol><symbol id="9"><text y="1.67" class="h">✔</text><text x="2.004" y="1.67" class="i">Done:</text></symbol><symbol id="10"><text y="1.67" class="m">╭───────────────────────────────────────────────────────────────────────╮</text></symbol><symbol id="11"><text y="1.67" class="m">│</text><text x="72.144" y="1.67" class="m">│</text></symbol><symbol id="12"><text y="1.67" class="m">│</text><text x="4.008" y="1.67" class="i">Particulate</text><text x="16.032" y="1.67" class="i">Matter</text><text x="23.046" y="1.67" class="i">(PM)</text><text x="28.056" y="1.67" class="i">in</text><text x="31.062" y="1.67" class="i">μg/m3:</text><text x="72.144" y="1.67" class="m">│</text></symbol><symbol id="13"><text y="1.67" class="m">│</text><text x="21.042" y="1.67" class="i">69.76</text><text x="72.144" y="1.67" class="m">│</text></symbol><symbol id="14"><text y="1.67" class="m">│</text><text x="21.042" y="1.67" class="h">+++++</text><text x="72.144" y="1.67" class="m">│</text></symbol><symbol id="15"><text y="1.67" class="m">│</text><text x="13.026" y="1.67" class="i">36.46</text><text x="21.042" y="1.67" class="h">+++++</text><text x="72.144" y="1.67" class="m">│</text></symbol><symbol id="16"><text y="1.67" class="m">│</text><text x="5.01" y="1.67" class="i">21.15</text><text x="13.026" y="1.67" class="h">+++++</text><text x="21.042" y="1.67" class="h">+++++</text><text x="72.144" y="1.67" class="m">│</text></symbol><symbol id="17"><text y="1.67" class="m">│</text><text x="5.01" y="1.67" class="h">+++++</text><text x="13.026" y="1.67" class="h">+++++</text><text x="21.042" y="1.67" class="h">+++++</text><text x="72.144" y="1.67" class="m">│</text></symbol><symbol id="18"><text y="1.67" class="m">│</text><text x="6.012" y="1.67" class="i">PM1</text><text x="14.028" y="1.67" class="i">PM25</text><text x="22.044" y="1.67" class="i">PM10</text><text x="72.144" y="1.67" class="m">│</text></symbol><symbol id="19"><text y="1.67" class="m">│</text><text x="4.008" y="1.67" class="l">[Data</text><text x="10.02" y="1.67" class="l">from</text><text x="15.03" y="1.67" class="l">sensor</text><text x="22.044" y="1.67" class="l">nr.</text><text x="26.052" y="1.67" class="l">2701</text><text x="31.062" y="1.67" class="l">located</text><text x="39.078" y="1.67" class="l">in</text><text x="42.084" y="1.67" class="l">Felicjanek,</text><text x="54.108" y="1.67" class="l">Kraków,</text><text x="62.124" y="1.67" class="l">Poland]</text><text x="72.144" y="1.67" class="m">│</text></symbol><symbol id="20"><text y="1.67" class="m">╰───────────────────────────────────────────────────────────────────────╯</text></symbol><symbol id="21"><text y="1.67" class="i">Air</text><text x="4.008" y="1.67" class="i">quality</text><text x="12.024" y="1.67" class="i">guidelines</text><text x="23.046" y="1.67" class="i">recommended</text><text x="35.07" y="1.67" class="i">by</text><text x="38.076" y="1.67" class="i">WHO</text><text x="42.084" y="1.67" class="i">(24-hour</text><text x="51.102" y="1.67" class="i">mean):</text></symbol><symbol id="22"><text y="1.67" class="j">›</text><text x="2.004" y="1.67" class="i">PM</text><text x="5.01" y="1.67" class="i">10:</text><text x="9.018" y="1.67" class="i">50</text><text x="12.024" y="1.67" class="i">μg/m3</text></symbol><symbol id="23"><text y="1.67" class="j">›</text><text x="2.004" y="1.67" class="i">PM</text><text x="5.01" y="1.67" class="i">2.5:</text><text x="10.02" y="1.67" class="i">25</text><text x="13.026" y="1.67" class="i">μg/m3</text></symbol><symbol id="24"><text y="1.67" class="i">Ready</text><text x="6.012" y="1.67" class="i">more</text><text x="11.022" y="1.67" class="i">about</text><text x="17.034" y="1.67" class="i">air</text><text x="21.042" y="1.67" class="i">quality</text><text x="29.058" y="1.67" class="i">here:</text><text x="35.07" y="1.67" class="i">https://bit.ly/2tbIhek</text></symbol><symbol id="a"><path fill="transparent" d="M0 0h88v30H0z"/></symbol></defs><path class="a" d="M0 0h88v65.13H0z"/><g style="animation-duration:17.895219s;animation-iteration-count:infinite;animation-name:o;animation-timing-function:steps(1,end)"><svg width="5544"><svg><use xlink:href="#a"/></svg><svg x="88"><use xlink:href="#a"/></svg><svg x="176"><use xlink:href="#a"/><use xlink:href="#1" y="2.171"/></svg><svg x="264"><use xlink:href="#a"/><use xlink:href="#1" y="2.171"/></svg><svg x="352"><use xlink:href="#a"/><use xlink:href="#1" y="2.171"/><use xlink:href="#2" y="4.342"/></svg><svg x="440"><use xlink:href="#a"/><use xlink:href="#1" y="2.171"/><use xlink:href="#2" y="4.342"/></svg><svg x="528"><use xlink:href="#a"/><use xlink:href="#1" y="2.171"/><use xlink:href="#2" y="4.342"/></svg><svg x="616"><use xlink:href="#a"/><use xlink:href="#1" y="2.171"/><use xlink:href="#2" y="4.342"/></svg><svg x="704"><use xlink:href="#a"/><use xlink:href="#1" y="2.171"/><text y="6.012" class="g">❯</text><text x="2.004" y="6.012" fill="#b9c0cb" text-decoration="underline">a</text></svg><svg x="792"><use xlink:href="#a"/><use xlink:href="#1" y="2.171"/><text y="6.012" class="g">❯</text><text x="2.004" y="6.012" class="r">ai</text></svg><svg x="880"><use xlink:href="#a"/><use xlink:href="#1" y="2.171"/><text y="6.012" class="g">❯</text><text x="2.004" y="6.012" class="r">air</text></svg><svg x="968"><use xlink:href="#a"/><use xlink:href="#1" y="2.171"/><text y="6.012" class="g">❯</text><text x="2.004" y="6.012" class="r">airl</text></svg><svg x="1056"><use xlink:href="#a"/><use xlink:href="#1" y="2.171"/><use xlink:href="#3" y="4.342"/></svg><svg x="1144"><use xlink:href="#a"/><use xlink:href="#1" y="2.171"/><use xlink:href="#3" y="4.342"/></svg><svg x="1232"><use xlink:href="#a"/><use xlink:href="#1" y="2.171"/><text y="6.012" class="g">❯</text><text x="2.004" y="6.012" class="h">airly</text><text x="8.016" y="6.012" class="i">-</text></svg><svg x="1320"><use xlink:href="#a"/><use xlink:href="#1" y="2.171"/><text y="6.012" class="g">❯</text><text x="2.004" y="6.012" class="h">airly</text><text x="8.016" y="6.012" class="i">--</text></svg><svg x="1408"><use xlink:href="#a"/><use xlink:href="#1" y="2.171"/><text y="6.012" class="g">❯</text><text x="2.004" y="6.012" class="h">airly</text><text x="8.016" y="6.012" class="i">--c</text></svg><svg x="1496"><use xlink:href="#a"/><use xlink:href="#1" y="2.171"/><text y="6.012" class="g">❯</text><text x="2.004" y="6.012" class="h">airly</text><text x="8.016" y="6.012" class="i">--ci</text></svg><svg x="1584"><use xlink:href="#a"/><use xlink:href="#1" y="2.171"/><text y="6.012" class="g">❯</text><text x="2.004" y="6.012" class="h">airly</text><text x="8.016" y="6.012" class="i">--cit</text></svg><svg x="1672"><use xlink:href="#a"/><use xlink:href="#1" y="2.171"/><use xlink:href="#4" y="4.342"/></svg><svg x="1760"><use xlink:href="#a"/><use xlink:href="#1" y="2.171"/><use xlink:href="#4" y="4.342"/></svg><svg x="1848"><use xlink:href="#a"/><use xlink:href="#1" y="2.171"/><text y="6.012" class="g">❯</text><text x="2.004" y="6.012" class="h">airly</text><text x="8.016" y="6.012" class="i">--city</text><text x="15.03" y="6.012" class="i">K</text></svg><svg x="1936"><use xlink:href="#a"/><use xlink:href="#1" y="2.171"/><text y="6.012" class="g">❯</text><text x="2.004" y="6.012" class="h">airly</text><text x="8.016" y="6.012" class="i">--city</text><text x="15.03" y="6.012" class="i">Kr</text></svg><svg x="2024"><use xlink:href="#a"/><use xlink:href="#1" y="2.171"/><text y="6.012" class="g">❯</text><text x="2.004" y="6.012" class="h">airly</text><text x="8.016" y="6.012" class="i">--city</text><text x="15.03" y="6.012" class="i">Kra</text></svg><svg x="2112"><use xlink:href="#a"/><use xlink:href="#1" y="2.171"/><text y="6.012" class="g">❯</text><text x="2.004" y="6.012" class="h">airly</text><text x="8.016" y="6.012" class="i">--city</text><text x="15.03" y="6.012" class="i">Krak</text></svg><svg x="2200"><use xlink:href="#a"/><use xlink:href="#1" y="2.171"/><text y="6.012" class="g">❯</text><text x="2.004" y="6.012" class="h">airly</text><text x="8.016" y="6.012" class="i">--city</text><text x="15.03" y="6.012" class="i">Krako</text></svg><svg x="2288"><use xlink:href="#a"/><use xlink:href="#1" y="2.171"/><use xlink:href="#5" y="4.342"/></svg><svg x="2376"><use xlink:href="#a"/><use xlink:href="#1" y="2.171"/><use xlink:href="#5" y="4.342"/></svg><svg x="2464"><use xlink:href="#a"/><use xlink:href="#1" y="2.171"/><use xlink:href="#5" y="4.342"/></svg><svg x="2552"><use xlink:href="#a"/><use xlink:href="#1" y="2.171"/><use xlink:href="#5" y="4.342"/></svg><svg x="2640"><use xlink:href="#a"/><use xlink:href="#1" y="2.171"/><use xlink:href="#5" y="4.342"/></svg><svg x="2728"><use xlink:href="#a"/><use xlink:href="#1" y="2.171"/><use xlink:href="#5" y="4.342"/><use xlink:href="#6" y="6.513"/></svg><svg x="2816"><use xlink:href="#a"/><use xlink:href="#1" y="2.171"/><use xlink:href="#5" y="4.342"/><use xlink:href="#6" y="6.513"/><use xlink:href="#7" y="8.684"/><text y="12.525" class="j">❯</text><text x="3.006" y="12.525" class="s">Studencka</text><text x="3.006" y="14.696" class="i">Felicjanek</text></svg><svg x="2904"><use xlink:href="#a"/><use xlink:href="#1" y="2.171"/><use xlink:href="#5" y="4.342"/></svg><svg x="2992"><use xlink:href="#a"/><use xlink:href="#1" y="2.171"/><use xlink:href="#5" y="4.342"/><use xlink:href="#6" y="6.513"/><use xlink:href="#7" y="8.684"/><text x="3.006" y="12.525" class="i">Studencka</text><text y="14.696" class="j">❯</text><text x="3.006" y="14.696" class="s">Felicjanek</text></svg><svg x="3080"><use xlink:href="#a"/><use xlink:href="#1" y="2.171"/><use xlink:href="#5" y="4.342"/><use xlink:href="#8" y="6.513"/></svg><svg x="3168"><use xlink:href="#a"/><use xlink:href="#1" y="2.171"/><use xlink:href="#5" y="4.342"/><use xlink:href="#8" y="6.513"/></svg><svg x="3256"><use xlink:href="#a"/><use xlink:href="#1" y="2.171"/><use xlink:href="#5" y="4.342"/><use xlink:href="#8" y="6.513"/></svg><svg x="3344"><use xlink:href="#a"/><use xlink:href="#1" y="2.171"/><use xlink:href="#5" y="4.342"/><use xlink:href="#8" y="6.513"/><text y="10.354" class="j">⠋</text><text x="2.004" y="10.354" class="i">Fetching</text><text x="11.022" y="10.354" class="i">data...</text></svg><svg x="3432"><use xlink:href="#a"/><use xlink:href="#1" y="2.171"/><use xlink:href="#5" y="4.342"/><use xlink:href="#8" y="6.513"/></svg><svg x="3520"><use xlink:href="#a"/><use xlink:href="#1" y="2.171"/><use xlink:href="#5" y="4.342"/><use xlink:href="#8" y="6.513"/><text y="10.354" class="j">⠙</text><text x="2.004" y="10.354" class="i">Fetching</text><text x="11.022" y="10.354" class="i">data...</text></svg><svg x="3608"><use xlink:href="#a"/><use xlink:href="#1" y="2.171"/><use xlink:href="#5" y="4.342"/><use xlink:href="#8" y="6.513"/></svg><svg x="3696"><use xlink:href="#a"/><use xlink:href="#1" y="2.171"/><use xlink:href="#5" y="4.342"/><use xlink:href="#8" y="6.513"/><text y="10.354" class="j">⠹</text><text x="2.004" y="10.354" class="i">Fetching</text><text x="11.022" y="10.354" class="i">data...</text></svg><svg x="3784"><use xlink:href="#a"/><use xlink:href="#1" y="2.171"/><use xlink:href="#5" y="4.342"/><use xlink:href="#8" y="6.513"/></svg><svg x="3872"><use xlink:href="#a"/><use xlink:href="#1" y="2.171"/><use xlink:href="#5" y="4.342"/><use xlink:href="#8" y="6.513"/><text y="10.354" class="j">⠸</text><text x="2.004" y="10.354" class="i">Fetching</text><text x="11.022" y="10.354" class="i">data...</text></svg><svg x="3960"><use xlink:href="#a"/><use xlink:href="#1" y="2.171"/><use xlink:href="#5" y="4.342"/><use xlink:href="#8" y="6.513"/></svg><svg x="4048"><use xlink:href="#a"/><use xlink:href="#1" y="2.171"/><use xlink:href="#5" y="4.342"/><use xlink:href="#8" y="6.513"/><text y="10.354" class="j">⠼</text><text x="2.004" y="10.354" class="i">Fetching</text><text x="11.022" y="10.354" class="i">data...</text></svg><svg x="4136"><use xlink:href="#a"/><use xlink:href="#1" y="2.171"/><use xlink:href="#5" y="4.342"/><use xlink:href="#8" y="6.513"/></svg><svg x="4224"><use xlink:href="#a"/><use xlink:href="#1" y="2.171"/><use xlink:href="#5" y="4.342"/><use xlink:href="#8" y="6.513"/><text y="10.354" class="j">⠴</text><text x="2.004" y="10.354" class="i">Fetching</text><text x="11.022" y="10.354" class="i">data...</text></svg><svg x="4312"><use xlink:href="#a"/><use xlink:href="#1" y="2.171"/><use xlink:href="#5" y="4.342"/><use xlink:href="#8" y="6.513"/></svg><svg x="4400"><use xlink:href="#a"/><use xlink:href="#1" y="2.171"/><use xlink:href="#5" y="4.342"/><use xlink:href="#8" y="6.513"/><use xlink:href="#9" y="8.684"/></svg><svg x="4488"><use xlink:href="#a"/><use xlink:href="#1" y="2.171"/><use xlink:href="#5" y="4.342"/><use xlink:href="#8" y="6.513"/><use xlink:href="#9" y="8.684"/><use xlink:href="#10" y="13.026"/><use xlink:href="#11" y="15.197"/><use xlink:href="#12" y="17.368"/><use xlink:href="#11" y="19.539"/><use xlink:href="#13" y="21.71"/><use xlink:href="#14" y="23.881"/><use xlink:href="#14" y="26.052"/><text y="29.893" class="m">│</text><text x="13.026" y="29.893" class="i">36.46</text><text x="21.042" y="29.893" class="h">+++++</text></svg><svg x="4576"><use xlink:href="#a"/><use xlink:href="#1" y="2.171"/><use xlink:href="#5" y="4.342"/><use xlink:href="#8" y="6.513"/><use xlink:href="#9" y="8.684"/><use xlink:href="#10" y="13.026"/><use xlink:href="#11" y="15.197"/><use xlink:href="#12" y="17.368"/><use xlink:href="#11" y="19.539"/><use xlink:href="#13" y="21.71"/><use xlink:href="#14" y="23.881"/><use xlink:href="#14" y="26.052"/><use xlink:href="#15" y="28.223"/><use xlink:href="#16" y="30.394"/><use xlink:href="#17" y="32.565"/><use xlink:href="#17" y="34.736"/><use xlink:href="#18" y="36.907"/><use xlink:href="#11" y="39.078"/><text y="42.919" class="m">│</text><text x="4.008" y="42.919" class="l">[Data</text><text x="10.02" y="42.919" class="l">from</text><text x="15.03" y="42.919" class="l">sensor</text><text x="22.044" y="42.919" class="l">nr.</text><text x="26.052" y="42.919" class="l">2701</text><text x="31.062" y="42.919" class="l">located</text><text x="39.078" y="42.919" class="l">in</text><text x="42.084" y="42.919" class="l">Felicjanek,</text><text x="54.108" y="42.919" class="l">Kra</text></svg><svg x="4664"><use xlink:href="#a"/><use xlink:href="#1" y="2.171"/><use xlink:href="#5" y="4.342"/><use xlink:href="#8" y="6.513"/><use xlink:href="#9" y="8.684"/><use xlink:href="#10" y="13.026"/><use xlink:href="#11" y="15.197"/><use xlink:href="#12" y="17.368"/><use xlink:href="#11" y="19.539"/><use xlink:href="#13" y="21.71"/><use xlink:href="#14" y="23.881"/><use xlink:href="#14" y="26.052"/><use xlink:href="#15" y="28.223"/><use xlink:href="#16" y="30.394"/><use xlink:href="#17" y="32.565"/><use xlink:href="#17" y="34.736"/><use xlink:href="#18" y="36.907"/><use xlink:href="#11" y="39.078"/><use xlink:href="#19" y="41.249"/><use xlink:href="#11" y="43.42"/><use xlink:href="#20" y="45.591"/></svg><svg x="4752"><use xlink:href="#a"/><use xlink:href="#1" y="2.171"/><use xlink:href="#5" y="4.342"/><use xlink:href="#8" y="6.513"/><use xlink:href="#9" y="8.684"/><use xlink:href="#10" y="13.026"/><use xlink:href="#11" y="15.197"/><use xlink:href="#12" y="17.368"/><use xlink:href="#11" y="19.539"/><use xlink:href="#13" y="21.71"/><use xlink:href="#14" y="23.881"/><use xlink:href="#14" y="26.052"/><use xlink:href="#15" y="28.223"/><use xlink:href="#16" y="30.394"/><use xlink:href="#17" y="32.565"/><use xlink:href="#17" y="34.736"/><use xlink:href="#18" y="36.907"/><use xlink:href="#11" y="39.078"/><use xlink:href="#19" y="41.249"/><use xlink:href="#11" y="43.42"/><use xlink:href="#20" y="45.591"/><use xlink:href="#21" y="49.933"/><use xlink:href="#22" y="54.275"/><use xlink:href="#23" y="56.446"/></svg><svg x="4840"><use xlink:href="#a"/><use xlink:href="#1" y="2.171"/><use xlink:href="#5" y="4.342"/><use xlink:href="#8" y="6.513"/><use xlink:href="#9" y="8.684"/><use xlink:href="#10" y="13.026"/><use xlink:href="#11" y="15.197"/><use xlink:href="#12" y="17.368"/><use xlink:href="#11" y="19.539"/><use xlink:href="#13" y="21.71"/><use xlink:href="#14" y="23.881"/><use xlink:href="#14" y="26.052"/><use xlink:href="#15" y="28.223"/><use xlink:href="#16" y="30.394"/><use xlink:href="#17" y="32.565"/><use xlink:href="#17" y="34.736"/><use xlink:href="#18" y="36.907"/><use xlink:href="#11" y="39.078"/><use xlink:href="#19" y="41.249"/><use xlink:href="#11" y="43.42"/><use xlink:href="#20" y="45.591"/><use xlink:href="#21" y="49.933"/><use xlink:href="#22" y="54.275"/><use xlink:href="#23" y="56.446"/><use xlink:href="#24" y="60.788"/></svg><svg x="4928"><use xlink:href="#a"/><use xlink:href="#1" y="2.171"/><use xlink:href="#5" y="4.342"/><use xlink:href="#8" y="6.513"/><use xlink:href="#9" y="8.684"/><use xlink:href="#10" y="13.026"/><use xlink:href="#11" y="15.197"/><use xlink:href="#12" y="17.368"/><use xlink:href="#11" y="19.539"/><use xlink:href="#13" y="21.71"/><use xlink:href="#14" y="23.881"/><use xlink:href="#14" y="26.052"/><use xlink:href="#15" y="28.223"/><use xlink:href="#16" y="30.394"/><use xlink:href="#17" y="32.565"/><use xlink:href="#17" y="34.736"/><use xlink:href="#18" y="36.907"/><use xlink:href="#11" y="39.078"/><use xlink:href="#19" y="41.249"/><use xlink:href="#11" y="43.42"/><use xlink:href="#20" y="45.591"/><use xlink:href="#21" y="49.933"/><use xlink:href="#22" y="54.275"/><use xlink:href="#23" y="56.446"/><use xlink:href="#24" y="60.788"/></svg><svg x="5016"><use xlink:href="#a"/><use xlink:href="#1" y="2.171"/><use xlink:href="#5" y="4.342"/><use xlink:href="#8" y="6.513"/><use xlink:href="#9" y="8.684"/><use xlink:href="#10" y="13.026"/><use xlink:href="#11" y="15.197"/><use xlink:href="#12" y="17.368"/><use xlink:href="#11" y="19.539"/><use xlink:href="#13" y="21.71"/><use xlink:href="#14" y="23.881"/><use xlink:href="#14" y="26.052"/><use xlink:href="#15" y="28.223"/><use xlink:href="#16" y="30.394"/><use xlink:href="#17" y="32.565"/><use xlink:href="#17" y="34.736"/><use xlink:href="#18" y="36.907"/><use xlink:href="#11" y="39.078"/><use xlink:href="#19" y="41.249"/><use xlink:href="#11" y="43.42"/><use xlink:href="#20" y="45.591"/><use xlink:href="#21" y="49.933"/><use xlink:href="#22" y="54.275"/><use xlink:href="#23" y="56.446"/><use xlink:href="#24" y="60.788"/></svg><svg x="5104"><use xlink:href="#a"/><use xlink:href="#5"/><use xlink:href="#8" y="2.171"/><use xlink:href="#9" y="4.342"/><use xlink:href="#10" y="8.684"/><use xlink:href="#11" y="10.855"/><use xlink:href="#12" y="13.026"/><use xlink:href="#11" y="15.197"/><use xlink:href="#13" y="17.368"/><use xlink:href="#14" y="19.539"/><use xlink:href="#14" y="21.71"/><use xlink:href="#15" y="23.881"/><use xlink:href="#16" y="26.052"/><use xlink:href="#17" y="28.223"/><use xlink:href="#17" y="30.394"/><use xlink:href="#18" y="32.565"/><use xlink:href="#11" y="34.736"/><use xlink:href="#19" y="36.907"/><use xlink:href="#11" y="39.078"/><use xlink:href="#20" y="41.249"/><use xlink:href="#21" y="45.591"/><use xlink:href="#22" y="49.933"/><use xlink:href="#23" y="52.104"/><use xlink:href="#24" y="56.446"/><use xlink:href="#1" y="60.788"/></svg><svg x="5192"><use xlink:href="#a"/><use xlink:href="#5"/><use xlink:href="#8" y="2.171"/><use xlink:href="#9" y="4.342"/><use xlink:href="#10" y="8.684"/><use xlink:href="#11" y="10.855"/><use xlink:href="#12" y="13.026"/><use xlink:href="#11" y="15.197"/><use xlink:href="#13" y="17.368"/><use xlink:href="#14" y="19.539"/><use xlink:href="#14" y="21.71"/><use xlink:href="#15" y="23.881"/><use xlink:href="#16" y="26.052"/><use xlink:href="#17" y="28.223"/><use xlink:href="#17" y="30.394"/><use xlink:href="#18" y="32.565"/><use xlink:href="#11" y="34.736"/><use xlink:href="#19" y="36.907"/><use xlink:href="#11" y="39.078"/><use xlink:href="#20" y="41.249"/><use xlink:href="#21" y="45.591"/><use xlink:href="#22" y="49.933"/><use xlink:href="#23" y="52.104"/><use xlink:href="#24" y="56.446"/><use xlink:href="#1" y="60.788"/><use xlink:href="#2" y="62.959"/></svg><svg x="5280"><use xlink:href="#a"/><use xlink:href="#5"/><use xlink:href="#8" y="2.171"/><use xlink:href="#9" y="4.342"/><use xlink:href="#10" y="8.684"/><use xlink:href="#11" y="10.855"/><use xlink:href="#12" y="13.026"/><use xlink:href="#11" y="15.197"/><use xlink:href="#13" y="17.368"/><use xlink:href="#14" y="19.539"/><use xlink:href="#14" y="21.71"/><use xlink:href="#15" y="23.881"/><use xlink:href="#16" y="26.052"/><use xlink:href="#17" y="28.223"/><use xlink:href="#17" y="30.394"/><use xlink:href="#18" y="32.565"/><use xlink:href="#11" y="34.736"/><use xlink:href="#19" y="36.907"/><use xlink:href="#11" y="39.078"/><use xlink:href="#20" y="41.249"/><use xlink:href="#21" y="45.591"/><use xlink:href="#22" y="49.933"/><use xlink:href="#23" y="52.104"/><use xlink:href="#24" y="56.446"/><use xlink:href="#1" y="60.788"/><use xlink:href="#2" y="62.959"/></svg><svg x="5368"><use xlink:href="#a"/><use xlink:href="#5"/><use xlink:href="#8" y="2.171"/><use xlink:href="#9" y="4.342"/><use xlink:href="#10" y="8.684"/><use xlink:href="#11" y="10.855"/><use xlink:href="#12" y="13.026"/><use xlink:href="#11" y="15.197"/><use xlink:href="#13" y="17.368"/><use xlink:href="#14" y="19.539"/><use xlink:href="#14" y="21.71"/><use xlink:href="#15" y="23.881"/><use xlink:href="#16" y="26.052"/><use xlink:href="#17" y="28.223"/><use xlink:href="#17" y="30.394"/><use xlink:href="#18" y="32.565"/><use xlink:href="#11" y="34.736"/><use xlink:href="#19" y="36.907"/><use xlink:href="#11" y="39.078"/><use xlink:href="#20" y="41.249"/><use xlink:href="#21" y="45.591"/><use xlink:href="#22" y="49.933"/><use xlink:href="#23" y="52.104"/><use xlink:href="#24" y="56.446"/><use xlink:href="#1" y="60.788"/><use xlink:href="#2" y="62.959"/></svg><svg x="5456"><use xlink:href="#a"/><use xlink:href="#8"/><use xlink:href="#9" y="2.171"/><use xlink:href="#10" y="6.513"/><use xlink:href="#11" y="8.684"/><use xlink:href="#12" y="10.855"/><use xlink:href="#11" y="13.026"/><use xlink:href="#13" y="15.197"/><use xlink:href="#14" y="17.368"/><use xlink:href="#14" y="19.539"/><use xlink:href="#15" y="21.71"/><use xlink:href="#16" y="23.881"/><use xlink:href="#17" y="26.052"/><use xlink:href="#17" y="28.223"/><use xlink:href="#18" y="30.394"/><use xlink:href="#11" y="32.565"/><use xlink:href="#19" y="34.736"/><use xlink:href="#11" y="36.907"/><use xlink:href="#20" y="39.078"/><use xlink:href="#21" y="43.42"/><use xlink:href="#22" y="47.762"/><use xlink:href="#23" y="49.933"/><use xlink:href="#24" y="54.275"/><use xlink:href="#1" y="58.617"/><use xlink:href="#2" y="60.788"/></svg></svg></g></g></svg></svg>